<svg width="205" height="59" viewBox="0 0 205 59" fill="none" xmlns="http://www.w3.org/2000/svg">
<path d="M203.865 52.1958C203.865 55.34 201.265 57.8869 198.049 57.8869H7.72665C4.51237 57.8869 1.90332 55.34 1.90332 52.1958V6.81174C1.90332 3.66904 4.51237 1.11328 7.72665 1.11328H198.048C201.265 1.11328 203.863 3.66904 203.863 6.81174L203.865 52.1958Z" fill="black"/>
<path d="M197.435 1.18185C200.937 1.18185 203.787 3.96038 203.787 7.37501V51.625C203.787 55.0396 200.937 57.8182 197.435 57.8182H8.33266C4.83048 57.8182 1.9807 55.0396 1.9807 51.625V7.37501C1.9807 3.96038 4.83048 1.18185 8.33266 1.18185H197.435ZM197.435 5.4802e-06H8.33266C4.17429 5.4802e-06 0.768555 3.3206 0.768555 7.37501V51.625C0.768555 55.6794 4.17429 59 8.33266 59H197.435C201.594 59 204.999 55.6794 204.999 51.625V7.37501C204.999 3.3206 201.594 5.4802e-06 197.435 5.4802e-06Z" fill="#A6A6A6"/>
<path d="M46.3465 29.1812C46.3026 24.4273 50.3389 22.1145 50.5234 22.0068C48.2375 18.7574 44.6945 18.3134 43.4495 18.278C40.4737 17.9727 37.5873 20.0141 36.0714 20.0141C34.5253 20.0141 32.1911 18.3075 29.6752 18.3577C26.4378 18.4064 23.4091 20.2339 21.7481 23.0718C18.32 28.8582 20.8767 37.3616 24.161 42.0388C25.8039 44.3295 27.7237 46.8871 30.2365 46.7972C32.6948 46.6983 33.6131 45.2691 36.5798 45.2691C39.5192 45.2691 40.3815 46.7972 42.9442 46.7396C45.5825 46.6983 47.2436 44.4386 48.8291 42.1273C50.7276 39.5018 51.4901 36.9161 51.5204 36.7834C51.4583 36.7627 46.3964 34.8792 46.3465 29.1812Z" fill="white"/>
<path d="M41.5055 15.2012C42.8277 13.589 43.7324 11.3957 43.4812 9.16992C41.5675 9.25252 39.1742 10.4605 37.7961 12.0373C36.5767 13.4268 35.4875 15.7042 35.7689 17.8459C37.9186 18.0022 40.1258 16.7883 41.5055 15.2012Z" fill="white"/>
<path d="M81.9243 46.4682H78.4887L76.6067 40.7024H70.0653L68.2726 46.4682H64.9277L71.4087 26.8389H75.4116L81.9243 46.4682ZM76.0394 38.2834L74.3375 33.1578C74.1575 32.6341 73.8201 31.401 73.3224 29.4599H73.2619C73.0637 30.2948 72.7445 31.5279 72.3058 33.1578L70.6341 38.2834H76.0394Z" fill="white"/>
<path d="M98.5913 39.217C98.5913 41.6242 97.9241 43.527 96.5898 44.9238C95.3947 46.1672 93.9106 46.7882 92.1391 46.7882C90.2269 46.7882 88.8533 46.1185 88.0167 44.7792H87.9562V52.2354H84.7308V36.9735C84.7308 35.4602 84.69 33.907 84.6113 32.314H87.4479L87.6279 34.5575H87.6884C88.764 32.8671 90.3964 32.0234 92.5869 32.0234C94.2994 32.0234 95.729 32.6828 96.8727 34.0029C98.0195 35.3245 98.5913 37.062 98.5913 39.217ZM95.3055 39.3321C95.3055 37.9544 94.9878 36.8187 94.3494 35.9248C93.6519 34.9926 92.7155 34.5265 91.5416 34.5265C90.7458 34.5265 90.0227 34.7861 89.3767 35.2979C88.7292 35.8142 88.3056 36.4883 88.1075 37.3231C88.0076 37.7125 87.9577 38.0311 87.9577 38.2819V40.6419C87.9577 41.6714 88.2814 42.5402 88.9289 43.2497C89.5764 43.9591 90.4175 44.3131 91.4523 44.3131C92.6671 44.3131 93.6126 43.8559 94.2888 42.9443C94.9666 42.0313 95.3055 40.8277 95.3055 39.3321Z" fill="white"/>
<path d="M115.288 39.217C115.288 41.6242 114.621 43.527 113.285 44.9238C112.091 46.1672 110.607 46.7882 108.836 46.7882C106.924 46.7882 105.55 46.1185 104.715 44.7792H104.654V52.2354H101.429V36.9735C101.429 35.4602 101.388 33.907 101.31 32.314H104.146L104.326 34.5575H104.387C105.461 32.8671 107.093 32.0234 109.285 32.0234C110.996 32.0234 112.426 32.6828 113.573 34.0029C114.715 35.3245 115.288 37.062 115.288 39.217ZM112.002 39.3321C112.002 37.9544 111.683 36.8187 111.045 35.9248C110.347 34.9926 109.414 34.5265 108.238 34.5265C107.441 34.5265 106.719 34.7861 106.072 35.2979C105.424 35.8142 105.002 36.4883 104.804 37.3231C104.706 37.7125 104.654 38.0311 104.654 38.2819V40.6419C104.654 41.6714 104.978 42.5402 105.623 43.2497C106.27 43.9577 107.111 44.3131 108.149 44.3131C109.364 44.3131 110.309 43.8559 110.986 42.9443C111.663 42.0313 112.002 40.8277 112.002 39.3321Z" fill="white"/>
<path d="M133.957 40.9635C133.957 42.6332 133.362 43.9917 132.168 45.0404C130.857 46.1865 129.031 46.7588 126.685 46.7588C124.518 46.7588 122.781 46.3517 121.467 45.536L122.214 42.9149C123.63 43.7498 125.184 44.1687 126.877 44.1687C128.091 44.1687 129.037 43.9002 129.716 43.3663C130.392 42.8323 130.73 42.1155 130.73 41.2216C130.73 40.4251 130.451 39.754 129.893 39.2097C129.338 38.6654 128.411 38.1595 127.116 37.6919C123.591 36.4102 121.83 34.5325 121.83 32.0633C121.83 30.4497 122.447 29.1266 123.683 28.0971C124.915 27.066 126.557 26.5513 128.612 26.5513C130.444 26.5513 131.966 26.8625 133.181 27.4835L132.374 30.047C131.24 29.4452 129.957 29.1443 128.521 29.1443C127.386 29.1443 126.5 29.4172 125.865 29.96C125.328 30.4453 125.058 31.0367 125.058 31.7374C125.058 32.5132 125.365 33.1548 125.983 33.6593C126.52 34.1254 127.495 34.6298 128.911 35.1741C130.644 35.8541 131.916 36.6491 132.734 37.5607C133.55 38.4693 133.957 39.6065 133.957 40.9635Z" fill="white"/>
<path d="M144.62 34.6738H141.065V41.5459C141.065 43.2937 141.691 44.1669 142.947 44.1669C143.523 44.1669 144.001 44.1183 144.38 44.0209L144.469 46.4089C143.834 46.6405 142.997 46.757 141.961 46.757C140.687 46.757 139.691 46.378 138.973 45.6213C138.257 44.8631 137.897 43.5917 137.897 41.8055V34.6709H135.779V32.3109H137.897V29.7193L141.065 28.7871V32.3109H144.62V34.6738Z" fill="white"/>
<path d="M160.66 39.2745C160.66 41.4502 160.022 43.2364 158.748 44.6332C157.412 46.0713 155.639 46.7882 153.429 46.7882C151.299 46.7882 149.603 46.0994 148.338 44.7217C147.074 43.3441 146.441 41.605 146.441 39.5091C146.441 37.3157 147.092 35.5192 148.397 34.1224C149.7 32.7241 151.458 32.0249 153.668 32.0249C155.798 32.0249 157.512 32.7137 158.806 34.0929C160.043 35.4307 160.66 37.1579 160.66 39.2745ZM157.314 39.3763C157.314 38.0709 157.028 36.9514 156.449 36.0177C155.772 34.8879 154.806 34.3244 153.553 34.3244C152.257 34.3244 151.272 34.8894 150.596 36.0177C150.016 36.9529 149.73 38.0901 149.73 39.4353C149.73 40.7407 150.016 41.8602 150.596 42.7924C151.293 43.9223 152.267 44.4857 153.524 44.4857C154.756 44.4857 155.723 43.9105 156.42 42.7629C157.015 41.8115 157.314 40.6802 157.314 39.3763Z" fill="white"/>
<path d="M171.145 35.0796C170.826 35.0221 170.485 34.9926 170.128 34.9926C168.994 34.9926 168.116 35.41 167.499 36.2464C166.962 36.9839 166.693 37.9161 166.693 39.0415V46.4681H163.469L163.499 36.7715C163.499 35.1401 163.458 33.6548 163.378 32.3155H166.187L166.305 35.0236H166.395C166.735 34.0929 167.272 33.3436 168.007 32.7816C168.726 32.2757 169.502 32.0234 170.338 32.0234C170.636 32.0234 170.906 32.0441 171.145 32.081V35.0796Z" fill="white"/>
<path d="M185.569 38.7216C185.569 39.285 185.531 39.76 185.451 40.1479H175.775C175.813 41.5462 176.281 42.6156 177.179 43.3531C177.995 44.0124 179.049 44.3428 180.344 44.3428C181.777 44.3428 183.084 44.1201 184.259 43.6732L184.764 45.8562C183.391 46.4403 181.769 46.7308 179.898 46.7308C177.647 46.7308 175.88 46.0848 174.594 44.7942C173.311 43.5035 172.668 41.7704 172.668 39.5963C172.668 37.4619 173.266 35.6846 174.462 34.2671C175.715 32.7537 177.408 31.9971 179.538 31.9971C181.63 31.9971 183.214 32.7537 184.289 34.2671C185.141 35.4692 185.569 36.956 185.569 38.7216ZM182.494 37.9059C182.515 36.9737 182.305 36.1684 181.867 35.4884C181.309 34.6137 180.451 34.1771 179.297 34.1771C178.243 34.1771 177.385 34.6034 176.73 35.4589C176.193 36.1389 175.874 36.9545 175.775 37.9044H182.494V37.9059Z" fill="white"/>
<path d="M74.9727 14.7631C74.9727 16.4992 74.4387 17.806 73.3721 18.6836C72.3842 19.4934 70.9803 19.899 69.1619 19.899C68.2603 19.899 67.4887 19.8607 66.8428 19.784V10.2983C67.6854 10.1655 68.5931 10.0977 69.5734 10.0977C71.3056 10.0977 72.6112 10.4649 73.4916 11.1995C74.478 12.0299 74.9727 13.2173 74.9727 14.7631ZM73.301 14.8059C73.301 13.6804 72.9954 12.8176 72.3842 12.2158C71.7731 11.6154 70.8805 11.3145 69.705 11.3145C69.2058 11.3145 68.7807 11.347 68.4282 11.4148V18.6261C68.6234 18.6556 68.9804 18.6689 69.4993 18.6689C70.7126 18.6689 71.649 18.34 72.3086 17.6821C72.9682 17.0243 73.301 16.0655 73.301 14.8059Z" fill="white"/>
<path d="M83.8363 16.2794C83.8363 17.3488 83.5231 18.2249 82.8968 18.9123C82.2402 19.6188 81.3704 19.9713 80.2842 19.9713C79.2373 19.9713 78.4037 19.6335 77.782 18.955C77.1617 18.278 76.8516 17.424 76.8516 16.3944C76.8516 15.3177 77.1708 14.4342 77.8122 13.7483C78.4536 13.0624 79.3159 12.7188 80.4022 12.7188C81.449 12.7188 82.2902 13.0565 82.9271 13.7335C83.5322 14.3914 83.8363 15.241 83.8363 16.2794ZM82.1918 16.3295C82.1918 15.6879 82.0496 15.1377 81.7667 14.679C81.4339 14.1244 80.9604 13.8471 80.3447 13.8471C79.7078 13.8471 79.2237 14.1244 78.8908 14.679C78.6064 15.1377 78.4657 15.6968 78.4657 16.3576C78.4657 16.9992 78.6079 17.5494 78.8908 18.0081C79.2343 18.5627 79.7123 18.84 80.3295 18.84C80.9347 18.84 81.4097 18.5583 81.7516 17.9933C82.0451 17.5258 82.1918 16.9712 82.1918 16.3295Z" fill="white"/>
<path d="M95.7212 12.8604L93.4898 19.8135H92.0375L91.1132 16.7942C90.8787 16.0405 90.6881 15.2912 90.5398 14.5478H90.5111C90.3734 15.3118 90.1828 16.0596 89.9377 16.7942L88.9559 19.8135H87.4869L85.3887 12.8604H87.018L87.8243 16.1658C88.0195 16.9476 88.1798 17.6925 88.3084 18.3975H88.3372C88.4552 17.8164 88.6503 17.0759 88.9256 16.1806L89.9377 12.8618H91.2297L92.1994 16.1098C92.4339 16.9019 92.6245 17.6644 92.7712 18.399H92.8151C92.9225 17.6836 93.0844 16.921 93.2992 16.1098L94.1645 12.8618H95.7212V12.8604Z" fill="white"/>
<path d="M103.94 19.8135H102.355V15.831C102.355 14.6038 101.877 13.9902 100.918 13.9902C100.447 13.9902 100.068 14.1584 99.7726 14.4962C99.4806 14.8339 99.3324 15.2322 99.3324 15.688V19.8121H97.7469V14.8472C97.7469 14.2366 97.7273 13.5743 97.6895 12.8574H99.0828L99.1569 13.9445H99.2008C99.3853 13.6067 99.6607 13.328 100.022 13.1052C100.452 12.8456 100.933 12.7144 101.459 12.7144C102.125 12.7144 102.679 12.9238 103.119 13.3442C103.667 13.859 103.94 14.6274 103.94 15.6481V19.8135Z" fill="white"/>
<path d="M108.312 19.8135H106.729V9.66992H108.312V19.8135Z" fill="white"/>
<path d="M117.646 16.2794C117.646 17.3488 117.333 18.2249 116.706 18.9123C116.05 19.6188 115.178 19.9713 114.094 19.9713C113.045 19.9713 112.212 19.6335 111.592 18.955C110.971 18.278 110.661 17.424 110.661 16.3944C110.661 15.3177 110.98 14.4342 111.622 13.7483C112.263 13.0624 113.126 12.7188 114.21 12.7188C115.259 12.7188 116.098 13.0565 116.737 13.7335C117.342 14.3914 117.646 15.241 117.646 16.2794ZM116 16.3295C116 15.6879 115.858 15.1377 115.575 14.679C115.243 14.1244 114.768 13.8471 114.154 13.8471C113.516 13.8471 113.032 14.1244 112.7 14.679C112.416 15.1377 112.275 15.6968 112.275 16.3576C112.275 16.9992 112.418 17.5494 112.7 18.0081C113.044 18.5627 113.522 18.84 114.139 18.84C114.744 18.84 115.218 18.5583 115.56 17.9933C115.855 17.5258 116 16.9712 116 16.3295Z" fill="white"/>
<path d="M125.319 19.8135H123.896L123.778 19.0126H123.734C123.247 19.6512 122.553 19.9713 121.651 19.9713C120.978 19.9713 120.433 19.7604 120.023 19.3415C119.651 18.9609 119.465 18.4875 119.465 17.9255C119.465 17.0759 119.828 16.4284 120.559 15.98C121.288 15.5316 122.313 15.3118 123.634 15.3221V15.1923C123.634 14.2763 123.141 13.8191 122.153 13.8191C121.45 13.8191 120.829 13.9917 120.294 14.3339L119.972 13.3191C120.634 12.9193 121.453 12.7188 122.418 12.7188C124.282 12.7188 125.217 13.6775 125.217 15.595V18.1556C125.217 18.8503 125.251 19.4034 125.319 19.8135ZM123.674 17.424V16.3517C121.925 16.3222 121.05 16.7897 121.05 17.7529C121.05 18.1158 121.15 18.3872 121.354 18.5686C121.559 18.75 121.819 18.84 122.129 18.84C122.477 18.84 122.802 18.7323 123.099 18.5184C123.397 18.3031 123.58 18.0302 123.648 17.6954C123.664 17.6202 123.674 17.5287 123.674 17.424Z" fill="white"/>
<path d="M134.328 19.8135H132.921L132.847 18.6969H132.803C132.354 19.5465 131.588 19.9713 130.513 19.9713C129.654 19.9713 128.938 19.6424 128.371 18.9845C127.803 18.3267 127.521 17.4727 127.521 16.4239C127.521 15.2985 127.828 14.387 128.445 13.6908C129.042 13.0418 129.775 12.7173 130.646 12.7173C131.604 12.7173 132.274 13.0314 132.655 13.6613H132.685V9.66992H134.272V17.9402C134.272 18.6173 134.29 19.2412 134.328 19.8135ZM132.685 16.8812V15.7218C132.685 15.5212 132.67 15.359 132.641 15.2351C132.552 14.8634 132.36 14.5507 132.068 14.2985C131.773 14.0462 131.418 13.9194 131.008 13.9194C130.416 13.9194 129.953 14.148 129.613 14.6067C129.275 15.0655 129.104 15.651 129.104 16.3664C129.104 17.0538 129.266 17.6113 129.592 18.0405C129.935 18.4978 130.398 18.7264 130.977 18.7264C131.498 18.7264 131.914 18.5361 132.23 18.1541C132.536 17.8016 132.685 17.3768 132.685 16.8812Z" fill="white"/>
<path d="M147.888 16.2794C147.888 17.3488 147.575 18.2249 146.949 18.9123C146.292 19.6188 145.424 19.9713 144.336 19.9713C143.291 19.9713 142.457 19.6335 141.834 18.955C141.213 18.278 140.903 17.424 140.903 16.3944C140.903 15.3177 141.223 14.4342 141.864 13.7483C142.505 13.0624 143.368 12.7188 144.455 12.7188C145.501 12.7188 146.343 13.0565 146.979 13.7335C147.584 14.3914 147.888 15.241 147.888 16.2794ZM146.245 16.3295C146.245 15.6879 146.103 15.1377 145.82 14.679C145.486 14.1244 145.014 13.8471 144.396 13.8471C143.761 13.8471 143.277 14.1244 142.943 14.679C142.658 15.1377 142.517 15.6968 142.517 16.3576C142.517 16.9992 142.66 17.5494 142.943 18.0081C143.286 18.5627 143.764 18.84 144.381 18.84C144.986 18.84 145.463 18.5583 145.805 17.9933C146.097 17.5258 146.245 16.9712 146.245 16.3295Z" fill="white"/>
<path d="M156.413 19.8135H154.829V15.831C154.829 14.6038 154.351 13.9902 153.39 13.9902C152.919 13.9902 152.54 14.1584 152.246 14.4962C151.953 14.8339 151.806 15.2322 151.806 15.688V19.8121H150.219V14.8472C150.219 14.2366 150.201 13.5743 150.163 12.8574H151.555L151.629 13.9445H151.673C151.859 13.6067 152.134 13.328 152.494 13.1052C152.925 12.8456 153.405 12.7144 153.933 12.7144C154.597 12.7144 155.151 12.9238 155.591 13.3442C156.14 13.859 156.413 14.6274 156.413 15.6481V19.8135Z" fill="white"/>
<path d="M167.083 14.0184H165.337V17.3962C165.337 18.2546 165.647 18.6839 166.261 18.6839C166.546 18.6839 166.782 18.6603 166.968 18.6116L167.008 19.7842C166.695 19.8993 166.284 19.9568 165.777 19.9568C165.151 19.9568 164.664 19.7709 164.311 19.3992C163.957 19.0275 163.782 18.4021 163.782 17.5245V14.0184H162.739V12.8606H163.782V11.5862L165.335 11.1289V12.8591H167.081V14.0184H167.083Z" fill="white"/>
<path d="M175.476 19.8135H173.889V15.8605C173.889 14.6141 173.411 13.9902 172.453 13.9902C171.718 13.9902 171.216 14.3516 170.94 15.0743C170.893 15.2262 170.866 15.4121 170.866 15.6304V19.812H169.282V9.66992H170.866V13.8604H170.896C171.396 13.0978 172.111 12.7173 173.039 12.7173C173.695 12.7173 174.238 12.9267 174.669 13.3471C175.206 13.8707 175.476 14.6495 175.476 15.6791V19.8135Z" fill="white"/>
<path d="M184.133 16.0081C184.133 16.2854 184.112 16.5184 184.074 16.7087H179.319C179.341 17.3961 179.568 17.9197 180.008 18.2825C180.41 18.607 180.929 18.7693 181.564 18.7693C182.268 18.7693 182.909 18.6601 183.487 18.4404L183.735 19.5142C183.059 19.8003 182.263 19.9434 181.342 19.9434C180.238 19.9434 179.368 19.6263 178.738 18.992C178.106 18.3578 177.793 17.5067 177.793 16.4388C177.793 15.3901 178.085 14.5169 178.673 13.8207C179.288 13.0773 180.118 12.7056 181.167 12.7056C182.192 12.7056 182.971 13.0773 183.498 13.8207C183.923 14.4107 184.133 15.1408 184.133 16.0081ZM182.62 15.6084C182.632 15.1496 182.528 14.7543 182.313 14.421C182.038 13.9918 181.619 13.7764 181.052 13.7764C180.534 13.7764 180.112 13.9859 179.79 14.4062C179.527 14.7411 179.371 15.1408 179.319 15.6084H182.62Z" fill="white"/>
</svg>
