<svg width="15" height="14" viewBox="0 0 15 14" fill="none" xmlns="http://www.w3.org/2000/svg">
<g clip-path="url(#clip0_1563_8951)">
<path d="M5.17598 0.672785C4.96543 0.164191 4.41035 -0.106512 3.87988 0.0384095L1.47363 0.69466C0.997852 0.82591 0.666992 1.25794 0.666992 1.75013C0.666992 8.51497 6.15215 14.0001 12.917 14.0001C13.4092 14.0001 13.8412 13.6693 13.9725 13.1935L14.6287 10.7872C14.7736 10.2568 14.5029 9.70169 13.9943 9.49114L11.3693 8.39739C10.9236 8.21146 10.4068 8.33997 10.1033 8.71458L8.99863 10.0626C7.07363 9.15208 5.51504 7.59349 4.60449 5.66849L5.95254 4.56653C6.32715 4.26028 6.45566 3.74622 6.26973 3.30052L5.17598 0.675519V0.672785Z" fill="black"/>
</g>
<defs>
<clipPath id="clip0_1563_8951">
<rect width="14" height="14" fill="white" transform="translate(0.666992)"/>
</clipPath>
</defs>
</svg>
