<svg width="205" height="59" viewBox="0 0 205 59" fill="none" xmlns="http://www.w3.org/2000/svg">
<path d="M197.215 59H8.37207C4.21942 59 0.818359 55.6794 0.818359 51.625V7.375C0.818359 3.32059 4.21942 7.56029e-07 8.37207 7.56029e-07H197.215C201.367 7.56029e-07 204.768 3.32059 204.768 7.375V51.625C204.768 55.6794 201.367 59 197.215 59Z" fill="black"/>
<path d="M197.215 1.18184C200.712 1.18184 203.558 3.96037 203.558 7.375V51.625C203.558 55.0396 200.712 57.8182 197.215 57.8182H8.37207C4.8747 57.8182 2.02884 55.0396 2.02884 51.625V7.375C2.02884 3.96037 4.8747 1.18184 8.37207 1.18184H197.215ZM197.215 7.56029e-07H8.37207C4.21942 7.56029e-07 0.818359 3.32059 0.818359 7.375V51.625C0.818359 55.6794 4.21942 59 8.37207 59H197.215C201.367 59 204.768 55.6794 204.768 51.625V7.375C204.768 3.32059 201.367 7.56029e-07 197.215 7.56029e-07Z" fill="#A6A6A6"/>
<path d="M72.4537 15.1096C72.4537 16.3413 72.076 17.3277 71.3319 18.0633C70.4765 18.9354 69.3623 19.3742 67.997 19.3742C66.6921 19.3742 65.5779 18.928 64.6639 18.0486C63.748 17.1562 63.291 16.061 63.291 14.7501C63.291 13.4392 63.748 12.344 64.6639 11.459C65.5779 10.5722 66.6921 10.126 67.997 10.126C68.6466 10.126 69.266 10.2569 69.8571 10.5003C70.4463 10.7455 70.9259 11.0774 71.2734 11.4867L70.484 12.2647C69.8778 11.5659 69.0526 11.2212 67.997 11.2212C67.0452 11.2212 66.22 11.5457 65.5194 12.2002C64.8263 12.8566 64.4788 13.7065 64.4788 14.7501C64.4788 15.7937 64.8263 16.651 65.5194 17.3074C66.22 17.9545 67.0452 18.2864 67.997 18.2864C69.0073 18.2864 69.8571 17.9545 70.5275 17.3C70.9694 16.8667 71.2205 16.2694 71.2866 15.506H67.997V14.4404H72.3857C72.4386 14.6708 72.4537 14.8939 72.4537 15.1096Z" fill="white" stroke="white" stroke-width="0.16" stroke-miterlimit="10"/>
<path d="M79.4164 11.4146H75.294V14.2171H79.0104V15.2828H75.294V18.0853H79.4164V19.1712H74.127V10.3286H79.4164V11.4146Z" fill="white" stroke="white" stroke-width="0.16" stroke-miterlimit="10"/>
<path d="M84.3304 19.1712H83.1634V11.4146H80.6348V10.3286H86.8609V11.4146H84.3304V19.1712Z" fill="white" stroke="white" stroke-width="0.16" stroke-miterlimit="10"/>
<path d="M91.3672 19.1712V10.3286H92.5323V19.1712H91.3672Z" fill="white" stroke="white" stroke-width="0.16" stroke-miterlimit="10"/>
<path d="M97.6966 19.1712H96.539V11.4146H94.001V10.3286H100.235V11.4146H97.6966V19.1712Z" fill="white" stroke="white" stroke-width="0.16" stroke-miterlimit="10"/>
<path d="M112.022 18.0338C111.129 18.928 110.023 19.3742 108.703 19.3742C107.375 19.3742 106.268 18.928 105.375 18.0338C104.484 17.1414 104.04 16.0463 104.04 14.7501C104.04 13.4539 104.484 12.3588 105.375 11.4664C106.268 10.5722 107.375 10.126 108.703 10.126C110.015 10.126 111.122 10.5722 112.015 11.4738C112.914 12.3735 113.358 13.4613 113.358 14.7501C113.358 16.0463 112.914 17.1414 112.022 18.0338ZM106.238 17.2926C106.91 17.9545 107.728 18.2864 108.703 18.2864C109.669 18.2864 110.495 17.9545 111.159 17.2926C111.83 16.6307 112.17 15.7808 112.17 14.7501C112.17 13.7194 111.83 12.8695 111.159 12.2076C110.495 11.5457 109.669 11.2138 108.703 11.2138C107.728 11.2138 106.91 11.5457 106.238 12.2076C105.568 12.8695 105.228 13.7194 105.228 14.7501C105.228 15.7808 105.568 16.6307 106.238 17.2926Z" fill="white" stroke="white" stroke-width="0.16" stroke-miterlimit="10"/>
<path d="M114.994 19.1712V10.3286H116.41L120.814 17.2058H120.865L120.814 15.5059V10.3286H121.979V19.1712H120.763L116.152 11.9548H116.101L116.152 13.6621V19.1712H114.994Z" fill="white" stroke="white" stroke-width="0.16" stroke-miterlimit="10"/>
<path d="M103.752 32.0848C100.204 32.0848 97.3048 34.7214 97.3048 38.3591C97.3048 41.9673 100.204 44.6315 103.752 44.6315C107.308 44.6315 110.207 41.9673 110.207 38.3591C110.207 34.7214 107.308 32.0848 103.752 32.0848ZM103.752 42.1609C101.805 42.1609 100.13 40.5919 100.13 38.3591C100.13 36.0968 101.805 34.5554 103.752 34.5554C105.699 34.5554 107.381 36.0968 107.381 38.3591C107.381 40.5919 105.699 42.1609 103.752 42.1609ZM89.685 32.0848C86.1291 32.0848 83.2379 34.7214 83.2379 38.3591C83.2379 41.9673 86.1291 44.6315 89.685 44.6315C93.239 44.6315 96.1321 41.9673 96.1321 38.3591C96.1321 34.7214 93.239 32.0848 89.685 32.0848ZM89.685 42.1609C87.7361 42.1609 86.0554 40.5919 86.0554 38.3591C86.0554 36.0968 87.7361 34.5554 89.685 34.5554C91.632 34.5554 93.307 36.0968 93.307 38.3591C93.307 40.5919 91.632 42.1609 89.685 42.1609ZM72.946 34.0078V36.6739H79.4667C79.276 38.1636 78.7661 39.2588 77.9843 40.0221C77.0325 40.944 75.5501 41.9673 72.946 41.9673C68.9331 41.9673 65.7907 38.8053 65.7907 34.8873C65.7907 30.9693 68.9331 27.8073 72.946 27.8073C75.1158 27.8073 76.6945 28.6351 77.8597 29.7082L79.784 27.8294C78.1543 26.3102 75.9863 25.1431 72.946 25.1431C67.4431 25.1431 62.8184 29.5146 62.8184 34.8873C62.8184 40.26 67.4431 44.6315 72.946 44.6315C75.9203 44.6315 78.1543 43.6801 79.9105 41.8954C81.7102 40.1383 82.271 37.6677 82.271 35.6727C82.271 35.0532 82.2182 34.4835 82.1237 34.0078H72.946ZM141.394 36.0747C140.863 34.6716 139.226 32.0848 135.891 32.0848C132.586 32.0848 129.835 34.6273 129.835 38.3591C129.835 41.8733 132.558 44.6315 136.208 44.6315C139.16 44.6315 140.863 42.8744 141.564 41.8511L139.373 40.4259C138.642 41.4695 137.647 42.1609 136.208 42.1609C134.779 42.1609 133.753 41.5211 133.096 40.26L141.69 36.7882L141.394 36.0747ZM132.632 38.1636C132.558 35.7446 134.556 34.5056 135.987 34.5056C137.109 34.5056 138.061 35.0532 138.378 35.8368L132.632 38.1636ZM125.646 44.2498H128.471V25.8124H125.646V44.2498ZM121.02 33.4824H120.925C120.291 32.7485 119.08 32.0848 117.547 32.0848C114.329 32.0848 111.387 34.843 111.387 38.3794C111.387 41.8954 114.329 44.6315 117.547 44.6315C119.08 44.6315 120.291 43.9622 120.925 43.2063H121.02V44.106C121.02 46.5048 119.707 47.7935 117.59 47.7935C115.864 47.7935 114.794 46.5767 114.352 45.5534L111.895 46.5545C112.603 48.2176 114.478 50.2642 117.59 50.2642C120.903 50.2642 123.697 48.3614 123.697 43.7318V32.4664H121.02V33.4824ZM117.789 42.1609C115.842 42.1609 114.212 40.5697 114.212 38.3794C114.212 36.1687 115.842 34.5554 117.789 34.5554C119.707 34.5554 121.22 36.1687 121.22 38.3794C121.22 40.5697 119.707 42.1609 117.789 42.1609ZM154.62 25.8124H147.864V44.2498H150.681V37.2639H154.62C157.75 37.2639 160.818 35.0532 160.818 31.5372C160.818 28.023 157.742 25.8124 154.62 25.8124ZM154.694 34.6992H150.681V28.377H154.694C156.798 28.377 157.999 30.0825 157.999 31.5372C157.999 32.9643 156.798 34.6992 154.694 34.6992ZM172.111 32.0498C170.075 32.0498 167.958 32.9274 167.088 34.8725L169.588 35.8958C170.126 34.8725 171.116 34.5407 172.162 34.5407C173.624 34.5407 175.106 35.398 175.129 36.9117V37.1053C174.619 36.8177 173.527 36.3918 172.185 36.3918C169.492 36.3918 166.748 37.8391 166.748 40.5402C166.748 43.0109 168.954 44.602 171.433 44.602C173.329 44.602 174.375 43.7668 175.032 42.7951H175.129V44.2203H177.85V37.1477C177.85 33.8788 175.35 32.0498 172.111 32.0498ZM171.771 42.1535C170.85 42.1535 169.565 41.7073 169.565 40.5919C169.565 39.1648 171.167 38.6172 172.553 38.6172C173.794 38.6172 174.375 38.8845 175.129 39.2367C174.908 40.944 173.403 42.1535 171.771 42.1535ZM187.764 32.4535L184.525 40.4462H184.429L181.081 32.4535H178.043L183.073 43.623L180.203 49.8383H183.147L190.899 32.4535H187.764ZM162.367 44.2498H165.192V25.8124H162.367V44.2498Z" fill="white"/>
<path d="M16.5834 11.1197C16.1396 11.5732 15.8828 12.2794 15.8828 13.1939V45.8135C15.8828 46.728 16.1396 47.4342 16.5834 47.8877L16.6929 47.9873L35.4148 29.7157V29.2843L16.6929 11.0127L16.5834 11.1197Z" fill="url(#paint0_linear_3387_15080)"/>
<path d="M41.6478 35.8091L35.4141 29.7155V29.2841L41.6553 23.1905L41.7951 23.2697L49.1864 27.3758C51.2957 28.541 51.2957 30.4585 49.1864 31.6311L41.7951 35.7298L41.6478 35.8091Z" fill="url(#paint1_linear_3387_15080)"/>
<path d="M41.7944 35.7299L35.4134 29.4999L16.582 47.8876C17.2826 48.6067 18.4251 48.6933 19.7244 47.9742L41.7944 35.7299Z" fill="url(#paint2_linear_3387_15080)"/>
<path d="M41.7944 23.27L19.7244 11.0256C18.4251 10.3139 17.2826 10.4006 16.582 11.1197L35.4134 29.5L41.7944 23.27Z" fill="url(#paint3_linear_3387_15080)"/>
<defs>
<linearGradient id="paint0_linear_3387_15080" x1="33.7525" y1="46.1532" x2="9.00558" y2="20.8066" gradientUnits="userSpaceOnUse">
<stop stop-color="#00A0FF"/>
<stop offset="0.0066" stop-color="#00A1FF"/>
<stop offset="0.2601" stop-color="#00BEFF"/>
<stop offset="0.5122" stop-color="#00D2FF"/>
<stop offset="0.7604" stop-color="#00DFFF"/>
<stop offset="1" stop-color="#00E3FF"/>
</linearGradient>
<linearGradient id="paint1_linear_3387_15080" x1="51.9331" y1="29.4977" x2="15.3779" y2="29.4977" gradientUnits="userSpaceOnUse">
<stop stop-color="#FFE000"/>
<stop offset="0.4087" stop-color="#FFBD00"/>
<stop offset="0.7754" stop-color="#FFA500"/>
<stop offset="1" stop-color="#FF9C00"/>
</linearGradient>
<linearGradient id="paint2_linear_3387_15080" x1="38.3246" y1="26.1131" x2="4.76574" y2="-8.25892" gradientUnits="userSpaceOnUse">
<stop stop-color="#FF3A44"/>
<stop offset="1" stop-color="#C31162"/>
</linearGradient>
<linearGradient id="paint3_linear_3387_15080" x1="11.8418" y1="58.7401" x2="26.8273" y2="43.3916" gradientUnits="userSpaceOnUse">
<stop stop-color="#32A071"/>
<stop offset="0.0685" stop-color="#2DA771"/>
<stop offset="0.4762" stop-color="#15CF74"/>
<stop offset="0.8009" stop-color="#06E775"/>
<stop offset="1" stop-color="#00F076"/>
</linearGradient>
</defs>
</svg>
