<svg width="24" height="20" viewBox="0 0 24 20" fill="none" xmlns="http://www.w3.org/2000/svg">
<path d="M8 3.75C8 3.05859 8.47879 2.5 9.07143 2.5H21.9286C22.5212 2.5 23 3.05859 23 3.75C23 4.44141 22.5212 5 21.9286 5H9.07143C8.47879 5 8 4.44141 8 3.75ZM8 10C8 9.30859 8.47879 8.75 9.07143 8.75H21.9286C22.5212 8.75 23 9.30859 23 10C23 10.6914 22.5212 11.25 21.9286 11.25H9.07143C8.47879 11.25 8 10.6914 8 10ZM23 16.25C23 16.9414 22.5212 17.5 21.9286 17.5H9.07143C8.47879 17.5 8 16.9414 8 16.25C8 15.5586 8.47879 15 9.07143 15H21.9286C22.5212 15 23 15.5586 23 16.25Z" fill="black"/>
</svg>
