<svg width="240" height="52" viewBox="0 0 240 52" fill="none" xmlns="http://www.w3.org/2000/svg">
<g clip-path="url(#clip0_4338_3503)">
<path d="M42.2529 21.3776L21.3567 0.50135L0.480469 21.3776V42.4944H42.2529V21.3776Z" fill="#C92251"/>
<path d="M42.2538 42.9958H0.481296C0.220594 42.9958 0 42.7952 0 42.5145V21.3776C0 21.2572 0.060162 21.1169 0.160432 21.0366L21.0567 0.140377C21.2372 -0.040109 21.538 -0.040109 21.7586 0.140377L42.6548 21.0366C42.7551 21.1369 42.8153 21.2372 42.7752 21.3776V42.4744C42.7551 42.7551 42.5546 42.9557 42.2538 42.9958ZM0.982646 42.0131H41.7725V21.5781L21.3575 1.16313L0.942538 21.5781V42.0131H0.982646Z" fill="#C92251"/>
<path d="M17.8488 22.7613C18.7914 23.2827 19.5935 24.0648 20.135 25.0073C21.258 27.0127 21.258 29.4794 20.135 31.4848C19.5935 32.4273 18.7914 33.2094 17.8488 33.7509C15.8635 34.8338 13.477 34.8338 11.4917 33.7509C10.5492 33.2094 9.74701 32.4474 9.20555 31.4848C8.08253 29.4794 8.08253 27.0127 9.20555 25.0073C9.74701 24.0648 10.5492 23.2827 11.4917 22.7613C13.477 21.6784 15.8635 21.6784 17.8488 22.7613ZM12.8754 26.2306C12.0532 27.4339 12.0532 29.0382 12.8754 30.2214C13.3367 30.7428 13.9985 31.0035 14.6803 30.9634C15.3421 31.0235 15.9838 30.7428 16.445 30.2214C17.2673 29.0181 17.2673 27.4138 16.445 26.2306C16.0039 25.7092 15.3421 25.4686 14.6803 25.4886C14.0185 25.4485 13.3367 25.7092 12.8754 26.2306Z" fill="white"/>
<path d="M29.84 28.0956L34.3923 34.4127H29.7598L26.1902 29.0983V34.4127H22.3398V22.1196H26.1902V27.3135L29.7799 22.1196H34.3722L29.84 28.0956Z" fill="white"/>
<path d="M175.072 31.0636L169.477 36.2175V42.9958H166.248V9.44543H169.477V32.1867L183.675 19.1917H187.626L177.458 28.9179L188.588 42.9757H184.638L175.072 31.0636Z" fill="black"/>
<path d="M213.195 32.1064H193.301C193.401 34.4127 194.404 36.5584 196.129 38.1026C197.934 39.6467 200.26 40.4489 202.646 40.3687C204.05 40.3887 205.434 40.108 206.717 39.5866C207.961 39.0652 209.044 38.263 209.926 37.2603L211.731 39.3459C210.668 40.6093 209.304 41.612 207.78 42.2337C203.97 43.7378 199.698 43.5372 196.069 41.6722C194.224 40.6695 192.7 39.1655 191.657 37.3606C190.594 35.4555 190.052 33.3097 190.072 31.1439C190.032 28.978 190.554 26.8322 191.577 24.9271C192.539 23.1423 193.983 21.6383 195.748 20.6356C197.553 19.5928 199.618 19.0513 201.704 19.0714C203.789 19.0312 205.835 19.5727 207.62 20.6155C209.364 21.6383 210.788 23.1022 211.731 24.887C212.754 26.8122 213.275 28.958 213.215 31.1439L213.195 32.1064ZM195.928 24.0046C194.364 25.5087 193.421 27.5542 193.281 29.72H210.167C210.026 27.5542 209.084 25.5087 207.499 24.0046C204.211 21.0768 199.237 21.0768 195.928 24.0046Z" fill="black"/>
<path d="M239.325 19.2117L227.453 45.8434C226.491 48.0694 225.368 49.6537 224.104 50.5962C222.781 51.5588 221.176 52.0401 219.532 52C218.429 52 217.346 51.8195 216.323 51.4385C215.361 51.0976 214.478 50.5361 213.736 49.8141L215.22 47.4076C216.363 48.5908 217.928 49.2326 219.572 49.2125C220.575 49.2326 221.557 48.9117 222.36 48.3101C223.302 47.4678 224.044 46.4049 224.505 45.2418L225.548 42.9356L214.919 19.1917H218.269L227.233 39.4061L236.197 19.2117H239.325Z" fill="black"/>
<path d="M51.7402 27.1932C51.7402 17.8079 59.0599 10.8693 69.0268 10.8693C78.9936 10.8693 86.3133 17.7678 86.3133 27.1932C86.3133 36.6186 78.9535 43.5172 69.0268 43.5172C59.1001 43.5172 51.7402 36.5785 51.7402 27.1932ZM78.9134 27.1932C78.9134 21.1971 74.682 17.086 69.0268 17.086C63.3716 17.086 59.1402 21.1971 59.1402 27.1932C59.1402 33.1894 63.3716 37.3004 69.0268 37.3004C74.682 37.3004 78.9134 33.2094 78.9134 27.1932Z" fill="black"/>
<path d="M130.432 18.7104L121.628 42.9958H114.85L109.395 27.9352L103.76 42.9958H96.9818L88.2383 18.7104H94.8561L100.592 35.1346L106.548 18.7104H112.504L118.279 35.1346L124.195 18.7104H130.432Z" fill="black"/>
<path d="M158.627 29.0983V42.9958H151.588V30.1813C151.588 26.2507 149.783 24.4458 146.675 24.4458C143.286 24.4458 140.859 26.5314 140.859 30.9834V42.9757H133.82V18.7104H140.538V21.558C142.444 19.4925 145.271 18.3494 148.56 18.3494C154.295 18.3494 158.627 21.6984 158.627 29.0983Z" fill="black"/>
</g>
<defs>
<clipPath id="clip0_4338_3503">
<rect width="239.324" height="52" fill="white"/>
</clipPath>
</defs>
</svg>
