<svg width="24" height="24" viewBox="0 0 24 24" fill="none" xmlns="http://www.w3.org/2000/svg">
<rect width="24" height="24" rx="4" fill="black"/>
<path d="M5 12C5 8.70042 5 7.04989 6.02495 6.02495C7.04989 5 8.69968 5 12 5C15.2996 5 16.9501 5 17.9751 6.02495C19 7.04989 19 8.69968 19 12C19 15.2996 19 16.9501 17.9751 17.9751C16.9501 19 15.3003 19 12 19C8.70042 19 7.04989 19 6.02495 17.9751C5 16.9501 5 15.3003 5 12Z" stroke="white" stroke-width="1.5" stroke-linecap="round" stroke-linejoin="round"/>
<path d="M16.0579 7.94727H16.0505M15.3152 11.9999C15.3152 12.8793 14.9658 13.7227 14.344 14.3445C13.7222 14.9663 12.8788 15.3157 11.9994 15.3157C11.12 15.3157 10.2766 14.9663 9.65477 14.3445C9.03294 13.7227 8.68359 12.8793 8.68359 11.9999C8.68359 11.1205 9.03294 10.2771 9.65477 9.65528C10.2766 9.03345 11.12 8.68411 11.9994 8.68411C12.8788 8.68411 13.7222 9.03345 14.344 9.65528C14.9658 10.2771 15.3152 11.1205 15.3152 11.9999Z" stroke="white" stroke-width="1.5" stroke-linecap="round" stroke-linejoin="round"/>
</svg>
