<svg width="24" height="24" viewBox="0 0 24 24" fill="none" xmlns="http://www.w3.org/2000/svg">
<rect width="24" height="24" rx="4" fill="black"/>
<path d="M8.61703 17.2502H6.07734V9.0717H8.61703V17.2502ZM7.34582 7.95607C6.53371 7.95607 5.875 7.28342 5.875 6.47131C5.875 6.08122 6.02996 5.70711 6.30579 5.43128C6.58163 5.15545 6.95573 5.00049 7.34582 5.00049C7.73591 5.00049 8.11001 5.15545 8.38585 5.43128C8.66168 5.70711 8.81664 6.08122 8.81664 6.47131C8.81664 7.28342 8.15766 7.95607 7.34582 7.95607ZM18.1223 17.2502H15.588V13.269C15.588 12.3201 15.5689 11.1033 14.2676 11.1033C12.9472 11.1033 12.7448 12.1342 12.7448 13.2006V17.2502H10.2079V9.0717H12.6437V10.1873H12.6792C13.0183 9.54475 13.8465 8.86662 15.0822 8.86662C17.6525 8.86662 18.125 10.5592 18.125 12.7576V17.2502H18.1223Z" fill="white"/>
</svg>
