<svg width="116" height="42" viewBox="0 0 116 42" fill="none" xmlns="http://www.w3.org/2000/svg">
<path d="M8.52896 24C5.65087 24 3.27725 21.9634 1.97423 19.9709C-0.870813 15.6169 -0.616379 9.41018 2.57893 5.21144C5.14751 1.8388 9.43546 -0.153726 13.795 0.00928846C19.0049 0.205347 21.525 2.97109 22.1914 4.57591C22.7597 5.94061 22.6066 7.52009 21.8025 8.59951C21.2089 9.39696 20.255 9.96311 19.1183 10.1944C17.9475 10.4312 16.574 10.1944 15.2445 9.97412C12.2926 9.47406 10.8222 9.4234 10.0875 11.0756C9.29998 12.8533 10.7352 14.1596 12.8489 15.8052C13.1198 16.0167 13.3809 16.2194 13.6199 16.4165C14.0307 16.7547 14.4371 17.095 14.8447 17.4365L15.1057 17.6567C15.4681 17.2283 15.8184 16.8009 16.1554 16.3912C16.8086 15.5959 17.4254 14.8491 18.0069 14.2268C18.2327 13.9878 18.4618 13.7378 18.6943 13.4833C20.4929 11.5195 22.7289 9.07754 25.8889 9.07754H25.9187C27.4045 9.08525 28.7648 9.73841 29.5534 10.8134C30.9997 12.7828 30.5282 15.3294 28.1491 18.3881C27.9696 18.6183 27.7735 18.8838 27.5631 19.1679C26.172 21.0404 24.2665 23.6167 21.9204 23.8458C20.9027 23.9427 19.821 23.5859 18.616 22.7443C17.9431 22.2751 17.4419 21.8522 16.9573 21.4435C16.6896 21.2232 16.4374 21.003 16.1653 20.7915C15.8712 20.5613 15.5782 20.3267 15.2842 20.091C13.4767 22.046 11.4004 23.7687 9.04995 23.9747C8.87886 23.9916 8.70519 24 8.52896 24ZM13.3148 1.75619C9.71633 1.75619 6.08815 3.50089 3.97557 6.27214C1.21423 9.89812 0.99064 15.2545 3.44247 19.0071C4.54392 20.6979 6.56618 22.4304 8.91117 22.2256C10.6735 22.0714 12.3873 20.6428 13.9437 18.9686L13.7234 18.7802C13.3203 18.4417 12.9164 18.105 12.5118 17.7702C12.2838 17.5829 12.0349 17.3891 11.7771 17.1875C9.90468 15.7314 7.08717 13.5307 8.48931 10.364C9.85731 7.27997 13.0108 7.81197 15.5441 8.24154C16.7689 8.44861 17.9254 8.64467 18.7769 8.47174C19.4895 8.32745 20.0667 8.00032 20.4026 7.54872C20.8432 6.95614 20.9137 6.05185 20.5788 5.24669C19.6823 3.09335 16.4583 1.86303 13.7355 1.7606C13.5912 1.7584 13.4524 1.75619 13.3148 1.75619ZM16.4572 18.7747C16.7223 18.9906 16.9888 19.2032 17.2569 19.4125C17.5543 19.6449 17.8307 19.8784 18.0984 20.1042C18.5533 20.4886 19.0236 20.8851 19.6305 21.3081C20.4731 21.8973 21.1725 22.1584 21.7541 22.0978C23.3258 21.9458 25.0298 19.6449 26.1599 18.1216C26.3802 17.8264 26.5839 17.5499 26.7712 17.3098C28.6348 14.9141 29.0842 13.1243 28.1469 11.851C27.6876 11.2265 26.8318 10.8355 25.9132 10.831H25.8911C23.5032 10.831 21.7177 12.7817 19.9907 14.6674C19.7516 14.9284 19.517 15.1851 19.2857 15.4307C18.7449 16.0035 18.1468 16.7326 17.5135 17.5036C17.1731 17.9167 16.8218 18.344 16.4572 18.7747Z" fill="url(#paint0_linear_5819_56014)"/>
<path d="M45.6371 15.5989L46.738 16.6408C46.1351 17.4665 45.3422 18.1219 44.3592 18.6068C43.3893 19.0786 42.3211 19.3146 41.1546 19.3146C40.1454 19.3146 39.2083 19.1311 38.3433 18.7641C37.4914 18.3971 36.7443 17.8859 36.1021 17.2306C35.4729 16.5622 34.9815 15.7823 34.6276 14.8911C34.2737 13.9999 34.0968 13.03 34.0968 11.9815C34.0968 10.9329 34.2737 9.96305 34.6276 9.0718C34.9946 8.16745 35.4992 7.38761 36.1414 6.73229C36.7836 6.06385 37.5307 5.54615 38.3826 5.17916C39.2476 4.81218 40.1847 4.62869 41.1939 4.62869C42.3604 4.62869 43.4221 4.87116 44.3788 5.3561C45.3487 5.82794 46.1351 6.47671 46.738 7.30242L45.6371 8.34439C45.1521 7.62353 44.5361 7.0534 43.789 6.63399C43.042 6.21458 42.1769 6.00487 41.1939 6.00487C40.1454 6.00487 39.2018 6.26701 38.3629 6.79127C37.5372 7.30242 36.8819 8.01017 36.397 8.91452C35.912 9.80577 35.6695 10.8281 35.6695 11.9815C35.6695 13.1217 35.912 14.144 36.397 15.0484C36.8819 15.9396 37.5372 16.6474 38.3629 17.1716C39.2018 17.6828 40.1454 17.9384 41.1939 17.9384C42.1769 17.9384 43.042 17.7287 43.789 17.3093C44.5361 16.8898 45.1521 16.3197 45.6371 15.5989ZM50.3801 19H48.9253V4.84495H50.3801V19ZM61.3084 16.2476L62.3307 17.211C61.8195 17.8663 61.2035 18.384 60.4827 18.7641C59.7618 19.1311 58.9361 19.3146 58.0055 19.3146C56.9832 19.3146 56.0658 19.0917 55.2532 18.6461C54.4537 18.2005 53.8245 17.591 53.3658 16.8178C52.9071 16.0445 52.6777 15.1598 52.6777 14.1637C52.6777 13.1676 52.894 12.2829 53.3265 11.5096C53.7721 10.7363 54.3816 10.1269 55.1549 9.68126C55.9281 9.23563 56.8063 9.01282 57.7893 9.01282C58.7329 9.01282 59.5652 9.23563 60.2861 9.68126C61.02 10.1138 61.5967 10.7101 62.0161 11.4703C62.4355 12.2305 62.6452 13.1086 62.6452 14.1047V14.2227H61.1511V14.1047C61.1511 13.3445 61.0004 12.6827 60.6989 12.1191C60.4106 11.5424 60.0108 11.0968 59.4997 10.7822C59.0016 10.4545 58.4315 10.2907 57.7893 10.2907C57.0815 10.2907 56.459 10.4545 55.9216 10.7822C55.3842 11.1099 54.9648 11.562 54.6634 12.1387C54.3619 12.7154 54.2112 13.3839 54.2112 14.144C54.2112 14.9042 54.375 15.5792 54.7027 16.169C55.0303 16.7588 55.476 17.2175 56.0396 17.5452C56.6162 17.8728 57.2781 18.0367 58.0252 18.0367C59.3883 18.0367 60.4827 17.4403 61.3084 16.2476ZM62.6452 14.6748H53.8966V13.4756H62.3307L62.6452 14.1047V14.6748ZM73.1354 19H71.7396V17.1127L71.7199 16.5622V12.9448C71.7199 12.1322 71.4578 11.4834 70.9335 10.9985C70.4093 10.5135 69.7015 10.271 68.8103 10.271C68.1681 10.271 67.5848 10.4087 67.0606 10.6839C66.5494 10.9591 66.0972 11.3327 65.704 11.8045L64.6817 10.8215C65.2191 10.2448 65.822 9.79922 66.4904 9.48466C67.172 9.1701 67.9452 9.01282 68.8103 9.01282C69.6753 9.01282 70.4289 9.17666 71.0712 9.50432C71.7265 9.81888 72.2311 10.2645 72.585 10.8412C72.9519 11.4179 73.1354 12.0994 73.1354 12.8858V19ZM68.0435 19.3146C67.3096 19.3146 66.6608 19.1835 66.0972 18.9214C65.5468 18.6461 65.1142 18.2791 64.7997 17.8204C64.4982 17.3617 64.3475 16.8374 64.3475 16.2476C64.3475 15.5661 64.5375 14.9894 64.9176 14.5176C65.2977 14.0326 65.8154 13.6656 66.4708 13.4166C67.1392 13.1676 67.8928 13.0431 68.7316 13.0431H71.9165V14.2227H68.9282C68.0501 14.2227 67.3161 14.3865 66.7263 14.7142C66.1497 15.0287 65.8613 15.5268 65.8613 16.2083C65.8613 16.785 66.0776 17.2437 66.5101 17.5845C66.9426 17.9253 67.5127 18.0956 68.2205 18.0956C68.902 18.0956 69.518 17.9646 70.0685 17.7025C70.619 17.4272 71.058 17.0471 71.3857 16.5622C71.7265 16.0772 71.9165 15.5202 71.9558 14.8911L72.5456 15.2253C72.5456 16.0117 72.349 16.7129 71.9558 17.3289C71.5758 17.9449 71.0449 18.4299 70.3634 18.7837C69.6819 19.1376 68.9086 19.3146 68.0435 19.3146ZM80.9365 9.1701V10.5856H80.5433C79.9666 10.5856 79.4227 10.7363 78.9116 11.0378C78.4004 11.3392 77.9876 11.8111 77.673 12.4533C77.3584 13.0955 77.2012 13.9278 77.2012 14.9501V19H75.7463V9.32738H77.1815V12.3943H76.9259C77.0832 11.6079 77.3584 10.9788 77.7516 10.507C78.1448 10.0351 78.597 9.69436 79.1082 9.48466C79.6324 9.27495 80.1698 9.1701 80.7203 9.1701H80.9365ZM84.3624 19H82.9076V4.84495H84.3624V19ZM88.567 19H87.1122V9.32738H88.567V19ZM87.8396 6.73229C87.5512 6.73229 87.3022 6.63399 87.0925 6.43739C86.8828 6.22769 86.778 5.97866 86.778 5.69032C86.778 5.38887 86.8828 5.13984 87.0925 4.94325C87.3022 4.73354 87.5512 4.62869 87.8396 4.62869C88.141 4.62869 88.3901 4.73354 88.5867 4.94325C88.7964 5.13984 88.9012 5.38887 88.9012 5.69032C88.9012 5.97866 88.7964 6.22769 88.5867 6.43739C88.3901 6.63399 88.141 6.73229 87.8396 6.73229ZM100.183 19H98.7285V13.4166C98.7285 12.3812 98.4926 11.6014 98.0207 11.0771C97.5489 10.5528 96.9132 10.2907 96.1137 10.2907C95.5371 10.2907 94.9931 10.4414 94.482 10.7429C93.9708 11.0443 93.558 11.5162 93.2434 12.1584C92.9289 12.8006 92.7716 13.6329 92.7716 14.6552V19H91.3167V9.32738H92.7519V12.2567H92.4963C92.6536 11.4572 92.9223 10.8215 93.3024 10.3497C93.6956 9.87785 94.1543 9.53708 94.6786 9.32738C95.2159 9.11768 95.7795 9.01282 96.3693 9.01282C97.5489 9.01282 98.4795 9.37981 99.161 10.1138C99.8425 10.8346 100.183 11.8832 100.183 13.2593V19ZM110.976 16.2476L111.999 17.211C111.487 17.8663 110.871 18.384 110.151 18.7641C109.43 19.1311 108.604 19.3146 107.673 19.3146C106.651 19.3146 105.734 19.0917 104.921 18.6461C104.122 18.2005 103.492 17.591 103.034 16.8178C102.575 16.0445 102.346 15.1598 102.346 14.1637C102.346 13.1676 102.562 12.2829 102.994 11.5096C103.44 10.7363 104.049 10.1269 104.823 9.68126C105.596 9.23563 106.474 9.01282 107.457 9.01282C108.401 9.01282 109.233 9.23563 109.954 9.68126C110.688 10.1138 111.265 10.7101 111.684 11.4703C112.103 12.2305 112.313 13.1086 112.313 14.1047V14.2227H110.819V14.1047C110.819 13.3445 110.668 12.6827 110.367 12.1191C110.078 11.5424 109.679 11.0968 109.168 10.7822C108.669 10.4545 108.099 10.2907 107.457 10.2907C106.749 10.2907 106.127 10.4545 105.589 10.7822C105.052 11.1099 104.633 11.562 104.331 12.1387C104.03 12.7154 103.879 13.3839 103.879 14.144C103.879 14.9042 104.043 15.5792 104.371 16.169C104.698 16.7588 105.144 17.2175 105.707 17.5452C106.284 17.8728 106.946 18.0367 107.693 18.0367C109.056 18.0367 110.151 17.4403 110.976 16.2476ZM112.313 14.6748H103.564V13.4756H111.999L112.313 14.1047V14.6748ZM35.1275 41H33.9755V32.42H39.5315V33.416H35.1275V36.128H39.3035V37.124H35.1275V41ZM43.5092 41.192C41.6372 41.192 40.3172 39.872 40.3172 38.024C40.3172 36.188 41.6372 34.856 43.5092 34.856C45.3692 34.856 46.7012 36.188 46.7012 38.024C46.7012 39.872 45.3692 41.192 43.5092 41.192ZM43.5092 40.232C44.7092 40.232 45.5252 39.332 45.5252 38.024C45.5252 36.728 44.7092 35.816 43.5092 35.816C42.2972 35.816 41.4812 36.728 41.4812 38.024C41.4812 39.332 42.2972 40.232 43.5092 40.232ZM51.3823 34.952V36.008H51.1183C50.0383 36.008 49.1383 36.74 49.1383 38.492V41H48.0223V35.048H49.1263V36.344C49.5343 35.312 50.3983 34.952 51.2263 34.952H51.3823ZM60.8301 41H55.0341V32.42H60.8301V33.416H56.1861V36.128H60.6021V37.124H56.1861V40.004H60.8301V41ZM67.7348 41H66.6188V37.568C66.6188 36.404 66.0428 35.816 65.1548 35.816C64.1828 35.816 63.2828 36.536 63.2828 38.252V41H62.1668V35.048H63.2708V36.248C63.6668 35.216 64.5308 34.856 65.4068 34.856C66.8468 34.856 67.7348 35.768 67.7348 37.448V41ZM72.5933 34.952V36.008H72.3293C71.2493 36.008 70.3493 36.74 70.3493 38.492V41H69.2333V35.048H70.3373V36.344C70.7453 35.312 71.6093 34.952 72.4373 34.952H72.5933ZM76.4389 41.192C74.5669 41.192 73.2469 39.872 73.2469 38.024C73.2469 36.188 74.5669 34.856 76.4389 34.856C78.2989 34.856 79.6309 36.188 79.6309 38.024C79.6309 39.872 78.2989 41.192 76.4389 41.192ZM76.4389 40.232C77.6389 40.232 78.4549 39.332 78.4549 38.024C78.4549 36.728 77.6389 35.816 76.4389 35.816C75.2269 35.816 74.4109 36.728 74.4109 38.024C74.4109 39.332 75.2269 40.232 76.4389 40.232ZM82.068 41H80.952V32.36H82.068V41ZM84.7633 41H83.6473V32.36H84.7633V41ZM91.4066 39.248L92.1026 39.968C91.4786 40.736 90.5546 41.192 89.4266 41.192C87.4826 41.192 86.0906 39.872 86.0906 38.024C86.0906 36.176 87.4226 34.856 89.2466 34.856C90.9986 34.856 92.2586 36.152 92.2586 37.988V38.396H87.2666C87.4226 39.536 88.2866 40.256 89.4626 40.256C90.2666 40.256 90.9026 39.932 91.4066 39.248ZM89.2466 35.792C88.2026 35.792 87.4346 36.488 87.2786 37.568H91.1066C90.9626 36.5 90.2306 35.792 89.2466 35.792ZM98.6488 39.248L99.3448 39.968C98.7208 40.736 97.7968 41.192 96.6688 41.192C94.7248 41.192 93.3328 39.872 93.3328 38.024C93.3328 36.176 94.6648 34.856 96.4888 34.856C98.2408 34.856 99.5008 36.152 99.5008 37.988V38.396H94.5088C94.6648 39.536 95.5288 40.256 96.7048 40.256C97.5088 40.256 98.1448 39.932 98.6488 39.248ZM96.4888 35.792C95.4448 35.792 94.6768 36.488 94.5208 37.568H98.3488C98.2048 36.5 97.4728 35.792 96.4888 35.792Z" fill="#082B82"/>
<defs>
<linearGradient id="paint0_linear_5819_56014" x1="-6.70409" y1="0.98187" x2="19.3816" y2="16.5476" gradientUnits="userSpaceOnUse">
<stop offset="0.02" stop-color="#04CB00"/>
<stop offset="1" stop-color="#008BE9"/>
</linearGradient>
</defs>
</svg>
