<svg width="200" height="53" viewBox="0 0 200 53" fill="none" xmlns="http://www.w3.org/2000/svg">
<path d="M39.6693 26.2362L24.0092 10.582L8.36719 26.2362V42.0829H39.6693V26.2362Z" fill="black"/>
<path d="M39.6688 42.45H8.36667C8.17432 42.45 8 42.2951 8 42.083V26.2363C8 26.1401 8.03907 26.0438 8.11571 25.9852L23.7773 10.3115C23.9125 10.1761 24.144 10.1761 24.2972 10.3115L39.9588 25.9852C40.0355 26.0619 40.0746 26.1401 40.055 26.2363V42.0635C40.0355 42.2755 39.8822 42.4304 39.6703 42.4485L39.6688 42.45ZM8.73184 41.7176H39.3021V26.3912L24.0072 11.0845L8.7123 26.3912V41.7176H8.73184Z" fill="black"/>
<path d="M21.3697 27.2772C22.082 27.6622 22.6801 28.2608 23.0843 28.9541C23.9319 30.458 23.9319 32.3078 23.0843 33.8117C22.6801 34.5246 22.082 35.1036 21.3697 35.5081C20.6399 35.9063 19.822 36.1149 18.9909 36.1149C18.1597 36.1149 17.3418 35.9063 16.612 35.5081C15.8997 35.1036 15.3016 34.5246 14.8974 33.8117C14.0498 32.3078 14.0498 30.458 14.8974 28.9541C15.3016 28.2412 15.8997 27.6622 16.612 27.2772C17.3418 26.879 18.1597 26.6704 18.9909 26.6704C19.822 26.6704 20.6399 26.879 21.3697 27.2772ZM17.6519 29.8805C17.0358 30.7858 17.0358 31.9814 17.6519 32.8687C17.999 33.2537 18.4995 33.4478 18.9999 33.4282C19.5003 33.4673 19.9827 33.2553 20.3283 32.8687C20.9444 31.9634 20.9444 30.7678 20.3283 29.8805C20.0007 29.4955 19.5003 29.3015 18.9999 29.321C18.4995 29.3015 17.9975 29.494 17.6519 29.8805ZM30.3651 31.2881L33.7748 36.03H30.308L27.6301 32.0401V36.03H24.7403V26.8155H27.6301V30.7091L30.3275 26.8155H33.7763L30.3666 31.2881H30.3651Z" fill="white"/>
<path d="M141.712 34.5907L137.418 38.5461V43.748H134.94V18H137.418V35.4526L148.314 25.4797H151.346L143.543 32.944L152.085 43.7326H149.053L141.712 34.5907ZM170.969 35.391H155.702C155.778 37.1609 156.548 38.8077 157.872 39.9927C159.257 41.1778 161.042 41.7934 162.873 41.7318C163.951 41.7472 165.013 41.5318 165.998 41.1316C166.952 40.7315 167.783 40.1159 168.46 39.3463L169.845 40.9469C169.03 41.9165 167.983 42.686 166.813 43.1631C163.889 44.3174 160.611 44.1635 157.825 42.7322C156.409 41.9627 155.24 40.8084 154.439 39.4233C153.624 37.9612 153.208 36.3145 153.224 34.6523C153.193 32.9902 153.593 31.3434 154.378 29.8813C155.117 28.5116 156.225 27.3573 157.579 26.5878C158.964 25.7875 160.549 25.372 162.15 25.3873C163.751 25.3566 165.321 25.7721 166.69 26.5724C168.029 27.3573 169.122 28.4808 169.845 29.8505C170.63 31.328 171.03 32.9748 170.984 34.6523L170.969 35.391ZM157.718 29.1734C156.517 30.3276 155.794 31.8974 155.686 33.5596H168.645C168.537 31.8974 167.814 30.3276 166.598 29.1734C164.074 26.9264 160.257 26.9264 157.718 29.1734ZM191.023 25.4951L181.911 45.9334C181.173 47.6417 180.311 48.8576 179.341 49.5809C178.325 50.3196 177.094 50.689 175.832 50.6582C174.986 50.6582 174.155 50.5197 173.37 50.2273C172.631 49.9657 171.954 49.5347 171.384 48.9807L172.523 47.1338C173.4 48.0419 174.601 48.5344 175.863 48.519C176.632 48.5344 177.387 48.2881 178.002 47.8264C178.726 47.18 179.295 46.3643 179.649 45.4717L180.449 43.7018L172.292 25.4797H174.863L181.742 40.9931L188.622 25.4951H191.023ZM47.0605 31.6312C47.0605 24.4285 52.6704 19.0958 60.324 19.0958C67.9777 19.0958 73.5875 24.3947 73.5875 31.6312C73.5875 38.8677 67.9423 44.1666 60.324 44.1666C52.7058 44.1666 47.0605 38.8339 47.0605 31.6312ZM67.9069 31.6312C67.9069 27.0249 64.6518 23.8745 60.3225 23.8745C55.9931 23.8745 52.7381 27.0264 52.7381 31.6312C52.7381 36.236 55.9931 39.3879 60.3225 39.3879C64.6518 39.3879 67.9069 36.236 67.9069 31.6312ZM107.445 25.1196L100.692 43.7495H95.4973L91.3065 32.1837L86.9771 43.7495H81.7829L75.065 25.1196H80.1561L84.5547 37.7242L89.1256 25.1196H93.6966L98.129 37.7242L102.666 25.1196H107.445ZM129.091 33.0856V43.7511H123.689V33.9167C123.689 30.9032 122.304 29.5181 119.914 29.5181C117.316 29.5181 115.446 31.111 115.446 34.54V43.7511H110.044V25.1211H115.205V27.3034C116.659 25.7105 118.841 24.8441 121.369 24.8441C125.767 24.8441 129.091 27.4066 129.091 33.0856Z" fill="#1B1B1B"/>
</svg>
