<svg width="16" height="16" viewBox="0 0 16 16" fill="none" xmlns="http://www.w3.org/2000/svg">
<path d="M2 5.33331L7.26 8.83998C7.47911 8.98616 7.7366 9.06418 8 9.06418C8.2634 9.06418 8.52089 8.98616 8.74 8.83998L14 5.33331M3.33333 12.6666H12.6667C13.0203 12.6666 13.3594 12.5262 13.6095 12.2761C13.8595 12.0261 14 11.6869 14 11.3333V4.66665C14 4.31302 13.8595 3.97389 13.6095 3.72384C13.3594 3.47379 13.0203 3.33331 12.6667 3.33331H3.33333C2.97971 3.33331 2.64057 3.47379 2.39052 3.72384C2.14048 3.97389 2 4.31302 2 4.66665V11.3333C2 11.6869 2.14048 12.0261 2.39052 12.2761C2.64057 12.5262 2.97971 12.6666 3.33333 12.6666Z" stroke="black" stroke-linecap="round" stroke-linejoin="round"/>
</svg>
