<svg width="24" height="24" viewBox="0 0 24 24" fill="none" xmlns="http://www.w3.org/2000/svg">
<path d="M4.28223 8.09998H19.7172" stroke="black" stroke-width="2" stroke-linejoin="round"/>
<path d="M2.40008 10.4625V14.4225C2.40008 14.685 2.61758 14.9025 2.88008 14.9025H21.1201C21.3826 14.9025 21.6001 14.685 21.6001 14.4225V10.4625C21.6001 10.215 21.5026 9.98254 21.3376 9.80254L19.7176 8.10004L18.4576 4.11004C18.3601 3.81004 18.0826 3.60754 17.7676 3.60754H6.22508C5.91008 3.60754 5.63258 3.81004 5.53508 4.11004L4.27508 8.10004L2.65508 9.80254C2.48258 9.98254 2.39258 10.215 2.39258 10.4625H2.40008Z" stroke="black" stroke-width="2" stroke-linejoin="round"/>
<path d="M1.78516 7.57495H4.44766" stroke="black" stroke-width="2" stroke-linejoin="round"/>
<path d="M9.59961 13.7325H14.3996" stroke="black" stroke-width="2" stroke-linejoin="round"/>
<path d="M3.80957 11.655H8.60957" stroke="black" stroke-width="2" stroke-linejoin="round"/>
<path d="M15.3896 11.655H20.1896" stroke="black" stroke-width="2" stroke-linejoin="round"/>
<path d="M19.5527 7.57495H22.2152" stroke="black" stroke-width="2" stroke-linejoin="round"/>
<path d="M7.19973 14.9025H3.34473V18H7.19973V16.32" stroke="black" stroke-width="2" stroke-linejoin="round"/>
<path d="M16.7998 14.9025H20.6548V18H16.7998V16.32" stroke="black" stroke-width="2" stroke-linejoin="round"/>
<path d="M22.2152 20.4H1.78516" stroke="black" stroke-width="2" stroke-linejoin="round"/>
</svg>
