<svg width="21" height="20" viewBox="0 0 21 20" fill="none" xmlns="http://www.w3.org/2000/svg">
<path d="M16.7508 8.12344C16.7508 9.9165 16.1687 11.5728 15.1882 12.9166L20.1338 17.8661C20.6221 18.3544 20.6221 19.1474 20.1338 19.6357C19.6455 20.124 18.8525 20.124 18.3642 19.6357L13.4186 14.6863C12.0748 15.6707 10.4185 16.2488 8.6254 16.2488C4.1369 16.2488 0.5 12.6119 0.5 8.12344C0.5 3.63494 4.1369 -0.00195312 8.6254 -0.00195312C13.1139 -0.00195312 16.7508 3.63494 16.7508 8.12344ZM8.6254 13.7487C9.36412 13.7487 10.0956 13.6032 10.7781 13.3205C11.4606 13.0378 12.0807 12.6235 12.6031 12.1011C13.1254 11.5788 13.5398 10.9586 13.8225 10.2761C14.1052 9.59365 14.2507 8.86217 14.2507 8.12344C14.2507 7.38472 14.1052 6.65323 13.8225 5.97074C13.5398 5.28825 13.1254 4.66813 12.6031 4.14577C12.0807 3.62342 11.4606 3.20906 10.7781 2.92637C10.0956 2.64367 9.36412 2.49817 8.6254 2.49817C7.88668 2.49817 7.15519 2.64367 6.4727 2.92637C5.79021 3.20906 5.17008 3.62342 4.64773 4.14577C4.12537 4.66813 3.71102 5.28825 3.42832 5.97074C3.14562 6.65323 3.00012 7.38472 3.00012 8.12344C3.00012 8.86217 3.14562 9.59365 3.42832 10.2761C3.71102 10.9586 4.12537 11.5788 4.64773 12.1011C5.17008 12.6235 5.79021 13.0378 6.4727 13.3205C7.15519 13.6032 7.88668 13.7487 8.6254 13.7487Z" fill="white"/>
</svg>
